<?xml version="1.0" encoding="utf-8"?>
<!-- Generator: Adobe Illustrator 20.0.0, SVG Export Plug-In . SVG Version: 6.00 Build 0)  -->
<svg version="1.1" id="Layer_1" xmlns="http://www.w3.org/2000/svg" xmlns:xlink="http://www.w3.org/1999/xlink" x="0px" y="0px"
	 viewBox="0 0 333.7 54" style="enable-background:new 0 0 333.7 54;" xml:space="preserve">
<style type="text/css">
	.st0{fill:#C6C6C6;}
	.st1{fill:#1A4175;}
	.st2{fill:none;stroke:#1A4175;stroke-width:0.39;}
</style>
<title>Magnesium-logo</title>
<path class="st0" d="M32.4,23.4H20.8c1.1-2.2,3.4-3.6,5.8-3.4C29.1,19.9,31.3,21.2,32.4,23.4 M48.2,29.4h6.2v-6H48
	c0,0-2.6-16.5-20.1-16.5V0h-2v6.9c-5,0.3-9.7,2.4-13.2,6C9,16.4,6.9,21.1,6.8,26.1H0v1.9h6.8c0.6,10.2,8.8,18.4,19,19V54h2v-6.9
	c0,0,8.6,0.1,13.9-5.2C47.9,35.7,48.1,29.3,48.2,29.4L48.2,29.4z M36.7,17.7c-5.4-5.3-14.1-5.4-19.6-0.1c-2.3,2.7-3.5,6.1-3.6,9.6
	c0.2,3.5,1.5,6.8,3.9,9.4c2.5,2.4,5.9,3.7,9.4,3.6c1.7,0,5.9-0.2,9.2-3.1c1.9-1.6,3.2-3.8,3.7-6.3h-7.4c-1.3,1.7-3.3,2.8-5.5,2.8
	c-2.8,0.1-5.4-1.7-6.1-4.4h22.7c-0.5,3.7-2,7.1-4.3,9.9c-3.1,3.9-7.9,6.1-12.9,5.9c-0.4,0-6.3,0.1-12.1-5.3C8.9,35,8.7,28,8.7,27
	c0.1-4.8,2-9.4,5.3-12.8c3.2-3.3,7.6-5.3,12.2-5.3c4.7-0.1,9.3,1.9,12.5,5.4c2.2,2.6,3.8,5.7,4.5,9.1h-3.4
	C39.2,21.3,38.1,19.3,36.7,17.7z"/>
<path class="st1" d="M82.8,17.6c-0.1-2.1-0.3-4.5-0.3-6.4h-0.1c-0.7,1.7-1.4,3.6-2.3,5.6L76.9,24h-1.8l-3-7
	c-0.8-1.9-1.5-3.8-2.1-5.7l0,0c0,1.8-0.2,4.3-0.4,6.5l-0.6,6.3h-2.3l1.3-14.7h3l3.1,7.1c0.7,1.6,1.3,3.3,1.9,5l0,0
	c0.6-1.7,1.2-3.4,2-5l3.3-7.1h3l1.2,14.7h-2.3L82.8,17.6"/>
<path class="st2" d="M82.8,17.6c-0.1-2.1-0.3-4.5-0.3-6.4h-0.1c-0.7,1.7-1.4,3.6-2.3,5.6L76.9,24h-1.8l-3-7
	c-0.8-1.9-1.5-3.8-2.1-5.7l0,0c0,1.8-0.2,4.3-0.4,6.5l-0.6,6.3h-2.3l1.3-14.7h3l3.1,7.1c0.7,1.6,1.3,3.3,1.9,5l0,0
	c0.6-1.7,1.2-3.4,2-5l3.3-7.1h3l1.2,14.7h-2.3L82.8,17.6z"/>
<path class="st1" d="M100.8,21.5c0,0.9,0.1,1.7,0.2,2.5h-2.2l-0.2-1.3h-0.1c-1.1,1.1-2.5,1.6-4,1.6c-2.7,0-4-1.5-4-3
	c0-2.6,2.8-4,8-3.9v-0.2c0-0.9-0.3-2.5-3-2.5c-1.2,0-2.4,0.3-3.5,0.8l-0.7-1.3c1.4-0.6,2.9-0.9,4.4-0.9c4.1,0,5.1,2.2,5.1,4.3
	L100.8,21.5 M98.4,18.7c-2.6,0-5.6,0.3-5.6,2.4c0,1.3,1,1.8,2.2,1.8c1.3,0.1,2.6-0.6,3.2-1.8c0.1-0.2,0.1-0.4,0.1-0.6V18.7
	C98.4,18.7,98.4,18.7,98.4,18.7z"/>
<path class="st2" d="M100.8,21.5c0,0.9,0.1,1.7,0.2,2.5h-2.2l-0.2-1.3h-0.1c-1.1,1.1-2.5,1.6-4,1.6c-2.7,0-4-1.5-4-3
	c0-2.6,2.8-4,8-3.9v-0.2c0-0.9-0.3-2.5-3-2.5c-1.2,0-2.4,0.3-3.5,0.8l-0.7-1.3c1.4-0.6,2.9-0.9,4.4-0.9c4.1,0,5.1,2.2,5.1,4.3
	L100.8,21.5L100.8,21.5z M98.4,18.6c-2.6,0-5.6,0.3-5.6,2.4c0,1.3,1,1.8,2.2,1.8c1.3,0.1,2.6-0.6,3.2-1.7c0.1-0.2,0.1-0.4,0.1-0.6
	L98.4,18.6L98.4,18.6z"/>
<path class="st1" d="M118,22.5c0,2.5-0.6,3.9-1.9,4.8c-1.4,0.9-3.1,1.3-4.8,1.3c-1.5,0-3-0.3-4.4-0.9l0.6-1.5
	c1.2,0.6,2.5,0.9,3.9,0.8c2.5,0,4.3-1,4.3-3.7v-1.1l0,0c-1,1.2-2.6,1.9-4.2,1.8c-3.3,0-5.6-2.2-5.6-5.2c0-3.6,2.9-5.6,6-5.6
	c1.6-0.1,3.1,0.6,4.1,1.8l0,0l0.1-1.6h2.1c-0.1,1-0.1,1.9-0.1,2.9L118,22.5 M115.5,17.6c0-0.3,0-0.6-0.1-0.9
	c-0.6-1.3-1.9-2.2-3.3-2.1c-2.1-0.1-3.8,1.5-3.9,3.6c0,0.1,0,0.3,0,0.4c-0.1,2,1.5,3.7,3.5,3.8c0,0,0,0,0,0h0.4
	c1.4,0.1,2.7-0.7,3.3-2c0.1-0.3,0.2-0.7,0.2-1L115.5,17.6L115.5,17.6L115.5,17.6z"/>
<path class="st2" d="M118,22.5c0,2.5-0.6,3.9-1.9,4.8c-1.4,0.9-3.1,1.3-4.8,1.3c-1.5,0-3-0.3-4.4-0.9l0.6-1.5
	c1.2,0.6,2.5,0.9,3.9,0.8c2.5,0,4.3-1,4.3-3.7v-1.1l0,0c-1,1.2-2.6,1.9-4.2,1.8c-3.3,0-5.6-2.2-5.6-5.2c0-3.6,2.9-5.6,6-5.6
	c1.6-0.1,3.1,0.6,4.1,1.8l0,0l0.1-1.6h2.1c-0.1,1-0.1,1.9-0.1,2.9L118,22.5L118,22.5L118,22.5z M115.6,17.6c0-0.3,0-0.6-0.1-0.9
	c-0.6-1.3-1.9-2.2-3.4-2.1c-2.1-0.1-3.8,1.5-3.9,3.6c0,0.1,0,0.3,0,0.4c-0.1,2,1.5,3.7,3.5,3.8c0,0,0,0,0,0h0.5
	c1.4,0.1,2.7-0.7,3.3-2c0.1-0.3,0.2-0.7,0.2-1L115.6,17.6L115.6,17.6L115.6,17.6z"/>
<path class="st1" d="M124.1,16.3c0-1,0-1.9-0.1-2.9h2.1l0.1,1.7l0,0c1-1.3,2.7-2.1,4.4-2c1.8,0,4.7,0.9,4.7,4.5V24h-2.4v-6.1
	c0-1.7-0.8-3.1-3.1-3.1c-1.4,0-2.6,0.7-3.2,2c-0.1,0.3-0.2,0.6-0.2,0.9V24h-2.3V16.3"/>
<path class="st2" d="M124.1,16.3c0-1,0-1.9-0.1-2.9h2.1l0.1,1.7l0,0c1-1.3,2.7-2.1,4.4-2c1.8,0,4.7,0.9,4.7,4.5V24h-2.4v-6.1
	c0-1.7-0.8-3.1-3.1-3.1c-1.4,0-2.6,0.7-3.2,2c-0.1,0.3-0.2,0.6-0.2,0.9V24h-2.3V16.3L124.1,16.3z"/>
<path class="st1" d="M142.7,19.1c0,2.6,2.1,3.7,4.5,3.7c1.2,0,2.5-0.1,3.7-0.5l0.4,1.4c-1.4,0.5-2.9,0.7-4.4,0.7
	c-4,0-6.5-2.2-6.5-5.3s2.4-5.7,6.2-5.7c4.3,0,5.4,3,5.4,5c0,0.3,0,0.6-0.1,0.9L142.7,19.1 M149.7,17.8c0.1-1.7-1.2-3.1-2.8-3.1
	c-0.2,0-0.3,0-0.5,0c-1.9-0.1-3.5,1.3-3.7,3.1H149.7z"/>
<path class="st2" d="M142.7,19.1c0,2.6,2.1,3.7,4.5,3.7c1.2,0,2.5-0.1,3.7-0.5l0.4,1.4c-1.4,0.5-2.9,0.7-4.4,0.7
	c-4,0-6.5-2.2-6.5-5.3s2.4-5.7,6.2-5.7c4.3,0,5.4,3,5.4,5c0,0.3,0,0.6-0.1,0.9L142.7,19.1z M149.7,17.7c0.1-1.7-1.2-3.1-2.8-3.1
	c-0.2,0-0.3,0-0.5,0c-1.9-0.1-3.5,1.3-3.7,3.1H149.7z"/>
<path class="st1" d="M156.7,22.1c1,0.5,2.1,0.7,3.2,0.7c1.7,0,2.5-0.7,2.5-1.6s-0.7-1.4-2.4-2c-2.4-0.7-3.5-1.7-3.5-3
	c0-1.7,1.8-3.1,4.6-3.1c1.1,0,2.2,0.2,3.2,0.7l-0.6,1.4c-0.8-0.4-1.8-0.6-2.7-0.6c-1.4,0-2.2,0.7-2.2,1.4s0.8,1.3,2.5,1.8
	c2.3,0.7,3.5,1.6,3.5,3.2c0,1.9-1.8,3.2-4.9,3.2c-1.3,0-2.5-0.2-3.7-0.7L156.7,22.1"/>
<path class="st2" d="M156.7,22.1c1,0.5,2.1,0.7,3.2,0.7c1.7,0,2.5-0.7,2.5-1.6s-0.7-1.4-2.4-2c-2.4-0.7-3.5-1.7-3.5-3
	c0-1.7,1.8-3.1,4.6-3.1c1.1,0,2.2,0.2,3.2,0.7l-0.6,1.4c-0.8-0.4-1.8-0.6-2.7-0.6c-1.4,0-2.2,0.7-2.2,1.4s0.8,1.3,2.5,1.8
	c2.3,0.7,3.5,1.6,3.5,3.2c0,1.9-1.8,3.2-4.9,3.2c-1.3,0-2.5-0.2-3.7-0.7L156.7,22.1z"/>
<path class="st1" d="M171.1,11.5c-0.7,0.1-1.4-0.5-1.5-1.2c0,0,0,0,0,0l0,0c0.1-0.8,0.8-1.3,1.5-1.2l0,0c0.7-0.1,1.4,0.4,1.5,1.1v0
	C172.5,11,171.9,11.6,171.1,11.5L171.1,11.5 M169.9,24.1V13.5h2.4v10.6H169.9z"/>
<path class="st2" d="M171.1,11.5c-0.7,0.1-1.4-0.5-1.5-1.2c0,0,0,0,0,0l0,0c0.1-0.8,0.8-1.3,1.5-1.2l0,0c0.7-0.1,1.4,0.4,1.5,1.1v0
	C172.5,11,171.9,11.6,171.1,11.5L171.1,11.5z M169.9,24.1V13.5h2.4v10.6H169.9z"/>
<path class="st1" d="M189.5,21.1c0,1,0,1.9,0.1,2.9h-2.1l-0.1-1.8l0,0c-1,1.3-2.7,2.1-4.4,2c-2.1,0-4.6-0.9-4.6-4.6v-6.2h2.4v5.8
	c0,2,0.8,3.4,3,3.4c1.3,0,2.5-0.6,3.2-1.8c0.2-0.3,0.2-0.7,0.2-1v-6.4h2.4v7.7"/>
<path class="st2" d="M189.5,21.1c0,1,0,1.9,0.1,2.9h-2.1l-0.1-1.8l0,0c-1,1.3-2.7,2.1-4.4,2c-2.1,0-4.6-0.9-4.6-4.6v-6.2h2.4v5.8
	c0,2,0.8,3.4,3,3.4c1.3,0,2.5-0.6,3.2-1.8c0.2-0.3,0.2-0.7,0.2-1v-6.4h2.4v7.7L189.5,21.1L189.5,21.1z"/>
<path class="st1" d="M195.6,16.3c0-1.1,0-2-0.1-2.9h2.1l0.1,1.7h0.1c1-1.3,2.5-2.1,4.2-2c1.5-0.1,3,0.7,3.7,2.1l0,0
	c0.4-0.6,0.9-1,1.5-1.4c0.9-0.5,1.9-0.8,2.9-0.7c1.8,0,4.4,0.9,4.4,4.6V24h-2.4v-6c0-2.1-1-3.3-2.9-3.3c-1.2,0-2.3,0.7-2.9,1.7
	c-0.1,0.3-0.2,0.7-0.2,1V24h-2.4v-6.3c0.2-1.4-0.9-2.7-2.3-2.9c-0.2,0-0.3,0-0.5,0c-1.3,0-2.5,0.7-3,1.9c-0.1,0.3-0.2,0.6-0.2,0.9
	v6.4h-2.4L195.6,16.3"/>
<path class="st2" d="M195.6,16.3c0-1.1,0-2-0.1-2.9h2.1l0.1,1.7h0.1c1-1.3,2.5-2.1,4.2-2c1.5-0.1,3,0.7,3.7,2.1l0,0
	c0.4-0.6,0.9-1,1.5-1.4c0.9-0.5,1.9-0.8,2.9-0.7c1.8,0,4.4,0.9,4.4,4.6V24h-2.4v-6c0-2.1-1-3.3-2.9-3.3c-1.2,0-2.3,0.7-2.9,1.7
	c-0.1,0.3-0.2,0.7-0.2,1V24h-2.4v-6.3c0.2-1.4-0.9-2.7-2.3-2.9c-0.2,0-0.3,0-0.5,0c-1.3,0-2.5,0.7-3,1.9c-0.1,0.3-0.2,0.6-0.2,0.9
	v6.4h-2.4L195.6,16.3L195.6,16.3z"/>
<polyline class="st1" points="237.9,17.1 230.8,17.1 230.8,22.5 238.8,22.5 238.8,24 228.4,24 228.4,9.3 238.3,9.3 238.3,10.9 
	230.8,10.9 230.8,15.6 237.9,15.6 237.9,17.1 "/>
<polygon class="st2" points="237.9,17.1 230.8,17.1 230.8,22.5 238.8,22.5 238.8,24 228.4,24 228.4,9.3 238.3,9.3 238.3,10.9 
	230.8,10.9 230.8,15.6 237.9,15.6 "/>
<rect x="243.9" y="8.5" class="st1" width="2.4" height="15.5"/>
<rect x="243.9" y="8.5" class="st2" width="2.4" height="15.5"/>
<path class="st1" d="M253.7,19.1c0,2.6,2.1,3.7,4.5,3.7c1.2,0,2.5-0.1,3.7-0.5l0.4,1.4c-1.4,0.5-2.9,0.7-4.4,0.7
	c-4,0-6.5-2.2-6.5-5.3s2.4-5.7,6.2-5.7c4.3,0,5.4,3,5.4,5c0,0.3,0,0.6-0.1,0.9L253.7,19.1 M260.7,17.8c0.1-1.7-1.2-3.1-2.8-3.1
	c-0.2,0-0.3,0-0.5,0c-1.9-0.1-3.5,1.3-3.7,3.1H260.7z"/>
<path class="st2" d="M253.7,19.1c0,2.6,2.1,3.7,4.5,3.7c1.2,0,2.5-0.1,3.7-0.5l0.4,1.4c-1.4,0.5-2.9,0.7-4.4,0.7
	c-4,0-6.5-2.2-6.5-5.3s2.4-5.7,6.2-5.7c4.3,0,5.4,3,5.4,5c0,0.3,0,0.6-0.1,0.9L253.7,19.1z M260.7,17.7c0.1-1.7-1.2-3.1-2.8-3.1
	c-0.2,0-0.3,0-0.5,0c-1.9-0.1-3.5,1.3-3.7,3.1H260.7z"/>
<path class="st1" d="M270.5,18.3L270.5,18.3c0.3-0.4,0.8-0.9,1.1-1.2l3.9-3.6h2.9l-5.1,4.4l5.8,6.2h-2.9l-4.5-5.1l-1.2,1.1v4h-2.4
	V8.5h2.4L270.5,18.3"/>
<path class="st2" d="M270.5,18.3L270.5,18.3c0.3-0.4,0.8-0.9,1.1-1.2l3.9-3.6h2.9l-5.1,4.4l5.8,6.2h-2.9l-4.5-5.1l-1.2,1.1v4h-2.4
	V8.5h2.4L270.5,18.3L270.5,18.3L270.5,18.3z"/>
<path class="st1" d="M285.9,10.9v2.5h3.4v1.5h-3.4v5.7c0,1.3,0.5,2.1,1.8,2.1c0.5,0,0.9,0,1.4-0.1l0.1,1.5c-0.7,0.2-1.4,0.2-2.2,0.2
	c-0.9,0-1.9-0.2-2.6-0.8c-0.7-0.8-1-1.8-0.9-2.8v-5.7h-2v-1.5h2v-2L285.9,10.9"/>
<path class="st2" d="M285.9,10.9v2.5h3.4v1.5h-3.4v5.7c0,1.3,0.5,2.1,1.8,2.1c0.5,0,0.9,0,1.4-0.1l0.1,1.5c-0.7,0.2-1.4,0.2-2.2,0.2
	c-0.9,0-1.9-0.2-2.6-0.8c-0.7-0.8-1-1.8-0.9-2.8v-5.7h-2v-1.5h2v-2L285.9,10.9z"/>
<path class="st1" d="M294.2,16.8c0-1.1,0-2.2-0.1-3.3h2.1l0.1,2.1h0.1c0.7-1.4,2.1-2.3,3.7-2.3c0.2,0,0.4,0,0.7,0.1v1.8h-0.9
	c-1.5-0.1-2.9,1-3.2,2.5c-0.1,0.3-0.1,0.6-0.1,0.9v5.6h-2.4L294.2,16.8"/>
<path class="st2" d="M294.2,16.8c0-1.1,0-2.2-0.1-3.3h2.1l0.1,2.1h0.1c0.7-1.4,2.1-2.3,3.7-2.3c0.2,0,0.4,0,0.7,0.1v1.8h-0.9
	c-1.5-0.1-2.9,1-3.2,2.5c-0.1,0.3-0.1,0.6-0.1,0.9v5.6h-2.4L294.2,16.8z"/>
<path class="st1" d="M310.4,24.3c-3.5,0-6.3-2.1-6.3-5.4c0-3.6,2.9-5.6,6.6-5.6c3.8,0,6.4,2.2,6.4,5.4
	C317,22.6,313.5,24.3,310.4,24.3L310.4,24.3 M310.5,22.9c2.2,0,4-1.8,4-4c0,0,0-0.1,0-0.1c0-2.2-1.8-4-4-4s-4,1.8-4,4
	c-0.1,2.1,1.6,4,3.7,4.1L310.5,22.9L310.5,22.9z"/>
<path class="st2" d="M310.4,24.3c-3.5,0-6.3-2.1-6.3-5.4c0-3.6,2.9-5.6,6.6-5.6c3.8,0,6.4,2.2,6.4,5.4
	C317,22.6,313.5,24.3,310.4,24.3L310.4,24.3L310.4,24.3z M310.5,22.8c2.2,0,4-1.8,4-4c0,0,0-0.1,0-0.1c0-2.2-1.8-4-4-4s-4,1.8-4,4
	c-0.1,2.1,1.6,4,3.7,4.1L310.5,22.8L310.5,22.8z"/>
<path class="st1" d="M322,16.3c0-1,0-1.9-0.1-2.9h2.1l0.1,1.7l0,0c1-1.3,2.7-2.1,4.4-2c1.8,0,4.7,0.9,4.7,4.5V24h-2.4v-6.1
	c0-1.7-0.8-3.1-3.1-3.1c-1.4,0-2.6,0.7-3.2,2c-0.1,0.3-0.2,0.6-0.2,0.9V24H322V16.3"/>
<path class="st2" d="M322,16.3c0-1,0-1.9-0.1-2.9h2.1l0.1,1.7l0,0c1-1.3,2.7-2.1,4.4-2c1.8,0,4.7,0.9,4.7,4.5V24h-2.4v-6.1
	c0-1.7-0.8-3.1-3.1-3.1c-1.4,0-2.6,0.7-3.2,2c-0.1,0.3-0.2,0.6-0.2,0.9V24H322V16.3L322,16.3z"/>
<rect x="67" y="32.5" class="st0" width="266.7" height="1.2"/>
<path class="st1" d="M67.4,45.6c0.1,0.2,0.2,0.4,0.3,0.5c0.2,0.2,0.4,0.4,0.7,0.5c0.3,0.1,0.7,0.2,1,0.2c0.5,0,0.9-0.1,1.3-0.3
	c0.3-0.2,0.5-0.5,0.5-0.8c0-0.3-0.2-0.6-0.4-0.7c-0.4-0.2-0.9-0.4-1.3-0.4c-0.7-0.1-1.3-0.4-1.9-0.7c-0.3-0.2-0.6-0.6-0.6-1
	c0-0.5,0.3-0.9,0.6-1.1c0.5-0.3,1.1-0.5,1.7-0.5c0.4,0,0.8,0.1,1.2,0.2c0.4,0.1,0.7,0.3,0.9,0.6c0.2,0.2,0.3,0.4,0.4,0.7L71,42.8
	c-0.1-0.3-0.3-0.6-0.7-0.8c-0.3-0.2-0.7-0.3-1.1-0.3c-0.4,0-0.8,0.1-1.1,0.3c-0.3,0.2-0.4,0.4-0.4,0.7c0,0.2,0.1,0.5,0.3,0.6
	c0.5,0.3,1,0.5,1.5,0.5c0.7,0.1,1.3,0.4,1.9,0.7c0.3,0.2,0.5,0.6,0.5,1c0,0.5-0.3,1-0.7,1.2c-0.6,0.4-1.2,0.5-1.9,0.5
	c-0.4,0-0.9,0-1.3-0.2c-0.4-0.1-0.7-0.4-1-0.6c-0.2-0.2-0.3-0.5-0.4-0.8L67.4,45.6 M75.9,41.3h4.4v0.6h-3.7v2h2.7v0.6h-2.7v2.3h4
	v0.6h-4.8V41.3 M84.4,41.3h2.3c0.5,0,1.1,0,1.6,0.2c0.4,0.1,0.7,0.3,0.9,0.6c0.2,0.2,0.3,0.5,0.3,0.9c0,0.4-0.2,0.7-0.4,0.9
	c-0.4,0.3-0.8,0.5-1.2,0.6l1.8,2.9H89l-1.8-2.7h-2.1v2.7h-0.7L84.4,41.3 M85.1,41.8V44h1.6c0.4,0,0.8,0,1.2-0.2
	c0.2-0.1,0.5-0.2,0.6-0.4c0.1-0.2,0.2-0.4,0.2-0.6c0-0.3-0.2-0.6-0.4-0.8c-0.4-0.2-0.9-0.3-1.3-0.3L85.1,41.8L85.1,41.8z M92.3,41.3
	H93l2.2,5l2.2-5h0.7l-2.5,6h-0.7L92.3,41.3 M101.8,41.3h0.7v6h-0.7V41.3z M112.5,45.5c-0.1,0.3-0.3,0.7-0.5,0.9
	c-0.3,0.3-0.6,0.6-1,0.7c-0.4,0.2-0.9,0.3-1.3,0.2c-0.5,0-1.1-0.1-1.5-0.4c-0.5-0.2-0.8-0.6-1.1-1.1c-0.3-0.5-0.4-1.1-0.4-1.7
	c0-0.6,0.1-1.1,0.4-1.6c0.2-0.5,0.6-0.9,1.1-1.1c0.5-0.3,1-0.4,1.6-0.4c0.4,0,0.9,0.1,1.3,0.2c0.4,0.2,0.7,0.4,1,0.7
	c0.2,0.3,0.4,0.6,0.5,0.9l-0.8,0.1c-0.1-0.4-0.4-0.8-0.8-1c-0.9-0.5-2-0.4-2.7,0.2c-0.5,0.5-0.8,1.3-0.7,2c0,0.7,0.2,1.5,0.7,2
	c0.4,0.4,0.9,0.6,1.5,0.6c0.3,0,0.7-0.1,1-0.2c0.3-0.1,0.5-0.3,0.7-0.6c0.1-0.2,0.3-0.4,0.3-0.7L112.5,45.5 M116.2,41.3h4.4v0.6
	h-3.7v2h2.7v0.6h-2.7v2.3h4v0.6h-4.8V41.3 M131.3,43.8c-0.2-0.2-0.3-0.4-0.4-0.6c-0.1-0.2-0.1-0.4-0.1-0.6c0-0.4,0.2-0.8,0.5-1
	c0.7-0.5,1.6-0.5,2.4,0c0.4,0.3,0.6,0.9,0.3,1.3c-0.1,0.2-0.2,0.3-0.4,0.5c-0.2,0.2-0.3,0.3-0.5,0.4l-0.6,0.3l0.2,0.2
	c0.5,0.6,1,1.1,1.6,1.6c0.4-0.4,0.6-1,0.8-1.5h0.8c-0.1,0.3-0.1,0.5-0.2,0.8c-0.1,0.3-0.2,0.5-0.4,0.8c-0.1,0.1-0.2,0.3-0.3,0.4
	c0.4,0.3,0.8,0.4,1.3,0.5v0.7c-0.3,0-0.6-0.1-0.9-0.2c-0.3-0.1-0.6-0.3-0.9-0.5c-0.3,0.2-0.6,0.4-0.9,0.5c-0.4,0.1-0.9,0.2-1.3,0.2
	c-0.7,0-1.4-0.2-2-0.6c-0.3-0.3-0.5-0.7-0.5-1.1c0-0.4,0.1-0.7,0.4-1C130.4,44.4,130.8,44.1,131.3,43.8 M131.8,44.4
	c-0.3,0.1-0.6,0.3-0.9,0.5c-0.2,0.1-0.3,0.2-0.4,0.4c-0.1,0.1-0.1,0.3-0.1,0.5c0,0.3,0.2,0.6,0.5,0.8c0.4,0.3,0.8,0.4,1.3,0.4
	c0.3,0,0.5,0,0.8-0.1c0.3-0.1,0.6-0.2,0.8-0.4C133,45.8,132.3,45.1,131.8,44.4L131.8,44.4z M132,43.6l0.2-0.1
	c0.3-0.1,0.6-0.3,0.8-0.6c0.1-0.1,0.2-0.3,0.2-0.5c0-0.2-0.1-0.3-0.2-0.4c-0.1-0.1-0.3-0.2-0.5-0.2c-0.2,0-0.5,0.1-0.6,0.2
	c-0.2,0.2-0.3,0.4-0.3,0.6c0,0.1,0,0.3,0.1,0.4C131.7,43.2,131.8,43.3,132,43.6L132,43.6z M145.3,41.3h0.7v6h-0.7V41.3z M150.6,41.3
	h1.2l3.7,4.9v-4.9h0.7v6h-0.7l-4.1-5.5v5.5h-0.7V41.3 M160.5,41.3h1.1l3.7,4.9v-4.9h0.7v6h-0.7l-4.1-5.5v5.5h-0.7V41.3 M173.1,47.4
	c-0.8,0-1.5-0.2-2.1-0.8c-0.7-0.6-1-1.4-1-2.3c0-0.6,0.1-1.1,0.4-1.7c0.2-0.5,0.6-0.9,1.1-1.1c0.5-0.3,1.1-0.4,1.6-0.4
	c0.5,0,0.9,0.1,1.4,0.3c0.4,0.2,0.7,0.4,1,0.7c0.3,0.3,0.4,0.6,0.6,1c0.1,0.4,0.2,0.8,0.2,1.2c0,0.4-0.1,0.8-0.2,1.2
	c-0.1,0.3-0.3,0.6-0.5,0.8c-0.4,0.5-0.9,0.8-1.5,0.9C173.7,47.4,173.4,47.4,173.1,47.4 M173.1,46.9c0.6,0,1.2-0.2,1.6-0.7
	c0.5-0.5,0.7-1.2,0.7-1.9c0-0.8-0.2-1.5-0.8-2.1c-0.4-0.4-1-0.6-1.5-0.6c-0.6,0-1.2,0.2-1.6,0.7c-0.5,0.5-0.7,1.3-0.7,2
	c-0.1,0.7,0.2,1.4,0.6,1.9C171.9,46.6,172.4,46.9,173.1,46.9L173.1,46.9z M178.8,41.3h0.7l2.2,5l2.1-5h0.7l-2.5,6h-0.7L178.8,41.3
	 M189.3,41.3h1.1l2.4,6h-0.7l-0.7-1.8h-3l-0.8,1.8h-0.7L189.3,41.3 M189.9,41.7l-1.3,3.2h2.6L189.9,41.7z M194.8,41.3h5.5v0.6h-2.4
	v5.4h-0.7v-5.4h-2.4V41.3 M204.1,41.3h0.7v6h-0.7V41.3z M212.1,47.4c-0.8,0-1.5-0.2-2.1-0.8c-0.7-0.6-1-1.4-1-2.3
	c0-0.6,0.1-1.1,0.4-1.7c0.2-0.5,0.6-0.9,1.1-1.1c0.5-0.3,1.1-0.4,1.6-0.4c0.5,0,0.9,0.1,1.4,0.3c0.4,0.2,0.7,0.4,1,0.7
	c0.3,0.3,0.4,0.6,0.6,1c0.1,0.4,0.2,0.8,0.2,1.2c0,0.4-0.1,0.8-0.2,1.2c-0.1,0.3-0.3,0.6-0.5,0.8c-0.4,0.5-0.9,0.8-1.5,0.9
	C212.7,47.4,212.4,47.4,212.1,47.4 M212.1,46.9c0.6,0,1.2-0.2,1.6-0.7c0.5-0.5,0.7-1.2,0.7-1.9c0-0.8-0.2-1.5-0.8-2.1
	c-0.4-0.4-1-0.6-1.5-0.6c-0.6,0-1.2,0.2-1.6,0.7c-0.5,0.5-0.7,1.3-0.7,2c-0.1,0.7,0.2,1.4,0.7,1.9C210.9,46.7,211.5,46.9,212.1,46.9
	L212.1,46.9z M219,41.3h1.1l3.7,4.9v-4.9h0.7v6h-0.7l-4.1-5.5v5.5H219V41.3 M234.5,41.3h0.7v6h-0.7V41.3z M239.8,41.3h1.1l3.7,4.9
	v-4.9h0.7v6h-0.7l-4.1-5.5v5.5h-0.7V41.3 M255.1,41.3h1.2l2.2,4.8l2.2-4.8h1.2v6h-0.7v-5.4l-2.5,5.4h-0.4l-2.5-5.4v5.4h-0.7V41.3
	 M267.9,41.3h1.2l2.4,6h-0.7l-0.7-1.8h-3l-0.8,1.8h-0.7L267.9,41.3 M268.5,41.7l-1.3,3.2h2.6L268.5,41.7z M279.2,46.5
	c-0.3,0.3-0.6,0.5-0.9,0.7c-0.4,0.2-0.8,0.2-1.2,0.2c-0.8,0-1.5-0.2-2.1-0.7c-1.2-1.3-1.2-3.4,0-4.7c0.6-0.5,1.4-0.8,2.2-0.8
	c0.5,0,0.9,0.1,1.3,0.2c0.4,0.1,0.7,0.4,1,0.7c0.2,0.3,0.4,0.6,0.5,0.9l-0.8,0.1c-0.1-0.2-0.2-0.4-0.3-0.6c-0.2-0.2-0.4-0.4-0.7-0.6
	c-0.3-0.1-0.6-0.2-0.9-0.2c-0.6,0-1.2,0.2-1.6,0.7c-0.5,0.5-0.7,1.2-0.7,1.9c0,0.5,0.1,0.9,0.3,1.4c0.2,0.4,0.5,0.7,0.8,0.9
	c0.3,0.2,0.7,0.3,1.1,0.3c0.3,0,0.6-0.1,0.9-0.2c0.3-0.1,0.5-0.2,0.7-0.4c0.2-0.2,0.3-0.3,0.4-0.6c0.1-0.2,0.1-0.5,0.1-0.7h-1.9
	v-0.6h2.6v2.9h-0.7L279.2,46.5 M284,41.3h1.1l3.7,4.9v-4.9h0.7v6h-0.7l-4.1-5.5v5.5H284V41.3 M294,41.3h4.4v0.6h-3.7v2h2.7v0.6h-2.7
	v2.3h4.1v0.6H294V41.3 M302.8,45.6c0.1,0.2,0.2,0.4,0.3,0.5c0.2,0.2,0.4,0.4,0.7,0.5c0.3,0.1,0.7,0.2,1,0.2c0.5,0,0.9-0.1,1.3-0.3
	c0.3-0.2,0.5-0.5,0.5-0.8c0-0.3-0.2-0.6-0.4-0.7c-0.4-0.2-0.9-0.4-1.3-0.4c-0.7-0.1-1.3-0.4-1.9-0.7c-0.3-0.2-0.6-0.6-0.6-1
	c0-0.5,0.3-0.9,0.6-1.1c0.5-0.3,1.1-0.5,1.7-0.5c0.4,0,0.8,0.1,1.2,0.2c0.4,0.1,0.7,0.3,0.9,0.6c0.2,0.2,0.3,0.4,0.4,0.7l-0.8,0.2
	c-0.1-0.3-0.3-0.6-0.7-0.8c-0.3-0.2-0.7-0.3-1.1-0.3c-0.4,0-0.8,0.1-1.1,0.3c-0.3,0.2-0.4,0.4-0.4,0.7c0,0.2,0.1,0.5,0.3,0.6
	c0.5,0.3,1,0.5,1.5,0.5c0.7,0.1,1.3,0.4,1.9,0.7c0.3,0.2,0.5,0.6,0.5,1c0,0.5-0.3,1-0.7,1.2c-0.6,0.4-1.2,0.5-1.9,0.5
	c-0.5,0-0.9-0.1-1.3-0.2c-0.4-0.1-0.7-0.4-1-0.6c-0.2-0.2-0.3-0.5-0.4-0.8L302.8,45.6 M311.4,41.3h0.7v6h-0.7V41.3z M316.7,41.3h0.7
	v4c0,0.5,0.2,0.9,0.5,1.2c0.4,0.3,0.9,0.5,1.4,0.4c0.4,0,0.8-0.1,1.2-0.2c0.3-0.1,0.5-0.3,0.7-0.6c0.1-0.2,0.2-0.5,0.2-0.8v-4h0.7v4
	c0,0.6-0.3,1.2-0.7,1.6c-0.6,0.4-1.3,0.6-2,0.6c-0.6,0-1.1-0.1-1.6-0.3c-0.4-0.2-0.7-0.5-0.9-0.8c-0.1-0.3-0.2-0.6-0.2-0.9
	L316.7,41.3 M326.5,41.3h1.2l2.2,4.8l2.2-4.8h1.2v6h-0.7v-5.4l-2.5,5.4h-0.4l-2.5-5.4v5.4h-0.7V41.3"/>
</svg>
